<svg width="220" height="72" viewBox="0 0 266 72" fill="none" xmlns="http://www.w3.org/2000/svg">
<path d="M0 48.7578L5.54743 39.1507H49.9184L16.6423 19.9364L27.7287 0.722168L55.4658 48.7578H0Z" fill="#667EEA"/>
<path d="M100.896 42.6223H98.3743V23.4585H78.8322L68.746 40.9328C68.4498 41.4459 68.0233 41.8716 67.5096 42.1668C66.996 42.462 66.4134 42.6162 65.821 42.6138H63.8794V48.6236H100.862L100.896 42.6223ZM83.3374 29.4765H91.7426V42.6223H75.7727L83.3374 29.4765Z" fill="#667EEA"/>
<path d="M132.592 42.6223H135.744C136.13 42.6181 136.502 42.4813 136.799 42.2349C137.096 41.9885 137.299 41.6475 137.374 41.269L140.821 23.4585H162.439V48.6236H155.807V29.4681H146.418L143.897 42.6391C143.571 44.326 142.668 45.8467 141.342 46.9403C140.017 48.0338 138.353 48.632 136.635 48.632H132.592V42.6223Z" fill="#667EEA"/>
<path d="M182.939 29.4934H171.356V23.4585H164.733V48.674H182.939C184.219 48.712 185.494 48.4925 186.688 48.0287C187.883 47.5649 188.972 46.8661 189.891 45.9738C190.81 45.0814 191.541 44.0136 192.04 42.8337C192.539 41.6538 192.796 40.3858 192.796 39.1047C192.796 37.8237 192.539 36.5556 192.04 35.3757C191.541 34.1958 190.81 33.128 189.891 32.2356C188.972 31.3433 187.883 30.6445 186.688 30.1807C185.494 29.7169 184.219 29.4975 182.939 29.5354V29.4934ZM182.039 42.6223H171.356V35.4947H182.098C183.043 35.4947 183.95 35.8701 184.618 36.5384C185.286 37.2068 185.662 38.1133 185.662 39.0585C185.662 40.0036 185.286 40.9101 184.618 41.5785C183.95 42.2468 183.043 42.6223 182.098 42.6223H182.039Z" fill="#667EEA"/>
<path d="M130.667 42.6223H109.444V39.0501H128.431V33.0404H109.444V29.4682H130.163V23.4585H102.821V48.632L130.667 48.6236V42.6223Z" fill="#667EEA"/>
<path d="M256.51 48.6316H264.495L249.996 23.416H239.851L225.352 48.6316H233.37L235.102 45.6225H254.82L256.51 48.6316ZM238.523 39.6128L244.406 29.4677H245.507L251.349 39.6128H238.523Z" fill="#667EEA"/>
<path d="M219.921 26.4675H214.97V23.4585H208.339V26.4675H203.388C200.849 26.4675 198.414 27.4762 196.618 29.2715C194.823 31.0669 193.814 33.502 193.814 36.041C193.814 38.5801 194.823 41.0151 196.618 42.8105C198.414 44.6059 200.849 45.6145 203.388 45.6145H208.339V48.6236H214.97V45.6145H219.921C222.46 45.6145 224.895 44.6059 226.69 42.8105C228.486 41.0151 229.495 38.5801 229.495 36.041C229.495 33.502 228.486 31.0669 226.69 29.2715C224.895 27.4762 222.46 26.4675 219.921 26.4675ZM208.339 39.6048H204.279C203.334 39.6048 202.427 39.2294 201.759 38.561C201.091 37.8927 200.715 36.9862 200.715 36.041C200.715 35.0959 201.091 34.1894 201.759 33.521C202.427 32.8527 203.334 32.4772 204.279 32.4772H208.339V39.6048ZM219.022 39.6048H214.97V32.4772H219.022C219.967 32.4772 220.873 32.8527 221.542 33.521C222.21 34.1894 222.585 35.0959 222.585 36.041C222.585 36.9862 222.21 37.8927 221.542 38.561C220.873 39.2294 219.967 39.6048 219.022 39.6048Z" fill="#667EEA"/>
<path d="M114.605 68.4465C113.747 68.4465 112.981 68.2521 112.306 67.8633C111.643 67.4745 111.111 66.9371 110.711 66.251C110.322 65.5649 110.128 64.7815 110.128 63.901C110.128 63.0091 110.322 62.2258 110.711 61.5511C111.111 60.865 111.643 60.3275 112.306 59.9387C112.981 59.5499 113.747 59.3555 114.605 59.3555C115.463 59.3555 116.229 59.5499 116.903 59.9387C117.578 60.3275 118.11 60.865 118.499 61.5511C118.887 62.2258 119.082 63.0091 119.082 63.901C119.082 64.7815 118.887 65.5649 118.499 66.251C118.11 66.9371 117.578 67.4745 116.903 67.8633C116.229 68.2521 115.463 68.4465 114.605 68.4465ZM114.605 67.6747C115.291 67.6747 115.908 67.5203 116.457 67.2115C117.006 66.8913 117.435 66.4454 117.744 65.8736C118.053 65.3018 118.207 64.6443 118.207 63.901C118.207 63.1463 118.053 62.4888 117.744 61.9285C117.435 61.3567 117.006 60.9164 116.457 60.6077C115.908 60.2875 115.291 60.1274 114.605 60.1274C113.919 60.1274 113.301 60.2875 112.752 60.6077C112.215 60.9164 111.786 61.3567 111.466 61.9285C111.157 62.4888 111.003 63.1463 111.003 63.901C111.003 64.6443 111.157 65.3018 111.466 65.8736C111.786 66.4454 112.215 66.8913 112.752 67.2115C113.301 67.5203 113.919 67.6747 114.605 67.6747ZM125.494 68.4465C124.625 68.4465 123.847 68.2521 123.161 67.8633C122.487 67.4745 121.949 66.9371 121.549 66.251C121.16 65.5649 120.966 64.7815 120.966 63.901C120.966 63.0091 121.16 62.2201 121.549 61.5339C121.949 60.8478 122.487 60.3161 123.161 59.9387C123.847 59.5499 124.625 59.3555 125.494 59.3555C126.215 59.3555 126.866 59.4927 127.45 59.7672C128.044 60.0416 128.524 60.4533 128.89 61.0022L128.256 61.4653C127.936 61.0079 127.535 60.6706 127.055 60.4533C126.575 60.236 126.054 60.1274 125.494 60.1274C124.797 60.1274 124.168 60.2875 123.607 60.6077C123.058 60.9164 122.624 61.3567 122.304 61.9285C121.995 62.4888 121.841 63.1463 121.841 63.901C121.841 64.6558 121.995 65.319 122.304 65.8908C122.624 66.4511 123.058 66.8913 123.607 67.2115C124.168 67.5203 124.797 67.6747 125.494 67.6747C126.054 67.6747 126.575 67.566 127.055 67.3488C127.535 67.1315 127.936 66.7941 128.256 66.3367L128.89 66.7999C128.524 67.3488 128.044 67.7604 127.45 68.0349C126.866 68.3093 126.215 68.4465 125.494 68.4465ZM131.423 68.3779V59.4241H132.28V63.5065H138.353V59.4241H139.21V68.3779H138.353V64.2612H132.28V68.3779H131.423ZM146.482 68.4465C145.624 68.4465 144.858 68.2521 144.183 67.8633C143.52 67.4745 142.988 66.9371 142.588 66.251C142.199 65.5649 142.005 64.7815 142.005 63.901C142.005 63.0091 142.199 62.2258 142.588 61.5511C142.988 60.865 143.52 60.3275 144.183 59.9387C144.858 59.5499 145.624 59.3555 146.482 59.3555C147.339 59.3555 148.106 59.5499 148.78 59.9387C149.455 60.3275 149.987 60.865 150.375 61.5511C150.764 62.2258 150.959 63.0091 150.959 63.901C150.959 64.7815 150.764 65.5649 150.375 66.251C149.987 66.9371 149.455 67.4745 148.78 67.8633C148.106 68.2521 147.339 68.4465 146.482 68.4465ZM146.482 67.6747C147.168 67.6747 147.785 67.5203 148.334 67.2115C148.883 66.8913 149.312 66.4454 149.621 65.8736C149.929 65.3018 150.084 64.6443 150.084 63.901C150.084 63.1463 149.929 62.4888 149.621 61.9285C149.312 61.3567 148.883 60.9164 148.334 60.6077C147.785 60.2875 147.168 60.1274 146.482 60.1274C145.796 60.1274 145.178 60.2875 144.629 60.6077C144.092 60.9164 143.663 61.3567 143.343 61.9285C143.034 62.4888 142.88 63.1463 142.88 63.901C142.88 64.6443 143.034 65.3018 143.343 65.8736C143.663 66.4454 144.092 66.8913 144.629 67.2115C145.178 67.5203 145.796 67.6747 146.482 67.6747ZM153.752 68.3779V59.4241H157.525C158.509 59.4241 159.286 59.6185 159.858 60.0073C160.43 60.3961 160.716 60.9622 160.716 61.7055C160.716 62.4373 160.436 62.9919 159.875 63.3693C159.326 63.7467 158.612 63.9353 157.731 63.9353L157.971 63.678C159.023 63.678 159.795 63.8724 160.287 64.2612C160.779 64.65 161.025 65.2218 161.025 65.9765C161.025 66.7427 160.744 67.3373 160.184 67.7604C159.635 68.1721 158.783 68.3779 157.628 68.3779H153.752ZM154.592 67.6747H157.611C158.446 67.6747 159.081 67.5374 159.515 67.263C159.95 66.9885 160.167 66.5483 160.167 65.9422C160.167 65.3247 159.973 64.8787 159.584 64.6043C159.206 64.3184 158.595 64.1755 157.748 64.1755H154.592V67.6747ZM154.592 63.5065H157.474C158.229 63.5065 158.812 63.3636 159.223 63.0777C159.647 62.7918 159.858 62.3687 159.858 61.8084C159.858 61.2481 159.647 60.8307 159.223 60.5562C158.812 60.2703 158.229 60.1274 157.474 60.1274H154.592V63.5065ZM169.662 68.3779V66.3367L169.628 66.028V62.666C169.628 61.8313 169.399 61.1966 168.942 60.7621C168.496 60.3275 167.838 60.1102 166.969 60.1102C166.352 60.1102 165.774 60.2189 165.237 60.4362C164.711 60.642 164.259 60.9107 163.882 61.2423L163.453 60.6248C163.899 60.2246 164.436 59.9159 165.065 59.6986C165.694 59.4699 166.352 59.3555 167.038 59.3555C168.147 59.3555 168.999 59.6357 169.593 60.196C170.188 60.7563 170.485 61.5911 170.485 62.7003V68.3779H169.662ZM166.437 68.4465C165.774 68.4465 165.197 68.3436 164.705 68.1378C164.225 67.9205 163.853 67.6175 163.59 67.2287C163.338 66.8399 163.213 66.3939 163.213 65.8908C163.213 65.4334 163.316 65.0217 163.521 64.6558C163.739 64.2784 164.093 63.9754 164.585 63.7467C165.077 63.5065 165.734 63.3864 166.557 63.3864H169.851V64.0554H166.575C165.648 64.0554 164.996 64.2269 164.619 64.57C164.253 64.9131 164.07 65.3419 164.07 65.8565C164.07 66.4282 164.288 66.8856 164.722 67.2287C165.157 67.5717 165.768 67.7433 166.557 67.7433C167.312 67.7433 167.947 67.5717 168.461 67.2287C168.987 66.8856 169.376 66.3882 169.628 65.7364L169.868 66.3196C169.628 66.9714 169.216 67.4917 168.633 67.8805C168.061 68.2579 167.329 68.4465 166.437 68.4465ZM173.97 68.3779V59.4241H174.828V63.5065H180.9V59.4241H181.757V68.3779H180.9V64.2612H174.828V68.3779H173.97ZM189.029 68.4465C188.171 68.4465 187.405 68.2521 186.73 67.8633C186.067 67.4745 185.535 66.9371 185.135 66.251C184.746 65.5649 184.552 64.7815 184.552 63.901C184.552 63.0091 184.746 62.2258 185.135 61.5511C185.535 60.865 186.067 60.3275 186.73 59.9387C187.405 59.5499 188.171 59.3555 189.029 59.3555C189.887 59.3555 190.653 59.5499 191.327 59.9387C192.002 60.3275 192.534 60.865 192.923 61.5511C193.311 62.2258 193.506 63.0091 193.506 63.901C193.506 64.7815 193.311 65.5649 192.923 66.251C192.534 66.9371 192.002 67.4745 191.327 67.8633C190.653 68.2521 189.887 68.4465 189.029 68.4465ZM189.029 67.6747C189.715 67.6747 190.332 67.5203 190.881 67.2115C191.43 66.8913 191.859 66.4454 192.168 65.8736C192.477 65.3018 192.631 64.6443 192.631 63.901C192.631 63.1463 192.477 62.4888 192.168 61.9285C191.859 61.3567 191.43 60.9164 190.881 60.6077C190.332 60.2875 189.715 60.1274 189.029 60.1274C188.343 60.1274 187.725 60.2875 187.176 60.6077C186.639 60.9164 186.21 61.3567 185.89 61.9285C185.581 62.4888 185.427 63.1463 185.427 63.901C185.427 64.6443 185.581 65.3018 185.89 65.8736C186.21 66.4454 186.639 66.8913 187.176 67.2115C187.725 67.5203 188.343 67.6747 189.029 67.6747ZM200.704 68.3779V59.4241H204.478C205.461 59.4241 206.239 59.6185 206.811 60.0073C207.383 60.3961 207.668 60.9622 207.668 61.7055C207.668 62.4373 207.388 62.9919 206.828 63.3693C206.279 63.7467 205.564 63.9353 204.684 63.9353L204.924 63.678C205.976 63.678 206.748 63.8724 207.24 64.2612C207.731 64.65 207.977 65.2218 207.977 65.9765C207.977 66.7427 207.697 67.3373 207.137 67.7604C206.588 68.1721 205.736 68.3779 204.581 68.3779H200.704ZM201.545 67.6747H204.564C205.399 67.6747 206.033 67.5374 206.468 67.263C206.902 66.9885 207.12 66.5483 207.12 65.9422C207.12 65.3247 206.925 64.8787 206.536 64.6043C206.159 64.3184 205.547 64.1755 204.701 64.1755H201.545V67.6747ZM201.545 63.5065H204.427C205.181 63.5065 205.764 63.3636 206.176 63.0777C206.599 62.7918 206.811 62.3687 206.811 61.8084C206.811 61.2481 206.599 60.8307 206.176 60.5562C205.764 60.2703 205.181 60.1274 204.427 60.1274H201.545V63.5065ZM216.663 68.3779V56.7483L217.058 57.16H213.73V56.3709H217.538V68.3779H216.663ZM224.186 56.2852C225.238 56.2852 226.118 56.5253 226.827 57.0056C227.547 57.4859 228.091 58.1777 228.457 59.0811C228.823 59.973 229.005 61.0479 229.005 62.3058C229.005 63.6552 228.783 64.7873 228.337 65.7021C227.891 66.6169 227.267 67.3087 226.467 67.7776C225.666 68.235 224.734 68.4637 223.671 68.4637C223.156 68.4637 222.665 68.418 222.196 68.3265C221.738 68.235 221.321 68.0749 220.944 67.8462L221.304 67.1429C221.613 67.3373 221.973 67.4803 222.384 67.5717C222.796 67.6518 223.225 67.6918 223.671 67.6918C225.02 67.6918 226.101 67.2573 226.913 66.3882C227.725 65.5077 228.131 64.1926 228.131 62.443C228.131 62.1686 228.114 61.8313 228.079 61.431C228.045 61.0308 227.971 60.6363 227.856 60.2475L228.165 60.3332C228.085 60.9965 227.862 61.5625 227.496 62.0314C227.13 62.4888 226.661 62.8433 226.09 63.0948C225.529 63.3464 224.9 63.4722 224.203 63.4722C223.402 63.4722 222.699 63.3293 222.093 63.0434C221.498 62.7461 221.029 62.3287 220.686 61.7912C220.355 61.2538 220.189 60.6248 220.189 59.9044C220.189 59.1726 220.36 58.5379 220.704 58.0004C221.058 57.4516 221.533 57.0285 222.127 56.7311C222.733 56.4338 223.419 56.2852 224.186 56.2852ZM224.22 57.0399C223.591 57.0399 223.042 57.16 222.573 57.4001C222.104 57.6288 221.733 57.9547 221.458 58.3778C221.195 58.8009 221.064 59.3041 221.064 59.8873C221.064 60.7449 221.355 61.431 221.939 61.9456C222.522 62.4602 223.316 62.7175 224.323 62.7175C224.975 62.7175 225.552 62.5917 226.055 62.3401C226.558 62.0885 226.947 61.7455 227.222 61.3109C227.507 60.8764 227.65 60.3904 227.65 59.853C227.65 59.3841 227.519 58.9381 227.256 58.515C226.993 58.0805 226.61 57.726 226.107 57.4516C225.604 57.1771 224.975 57.0399 224.22 57.0399ZM234.504 56.2852C235.556 56.2852 236.437 56.5253 237.146 57.0056C237.866 57.4859 238.409 58.1777 238.775 59.0811C239.141 59.973 239.324 61.0479 239.324 62.3058C239.324 63.6552 239.101 64.7873 238.655 65.7021C238.209 66.6169 237.586 67.3087 236.785 67.7776C235.985 68.235 235.053 68.4637 233.989 68.4637C233.475 68.4637 232.983 68.418 232.514 68.3265C232.057 68.235 231.64 68.0749 231.262 67.8462L231.622 67.1429C231.931 67.3373 232.291 67.4803 232.703 67.5717C233.115 67.6518 233.543 67.6918 233.989 67.6918C235.339 67.6918 236.419 67.2573 237.231 66.3882C238.043 65.5077 238.449 64.1926 238.449 62.443C238.449 62.1686 238.432 61.8313 238.398 61.431C238.363 61.0308 238.289 60.6363 238.175 60.2475L238.484 60.3332C238.403 60.9965 238.18 61.5625 237.815 62.0314C237.449 62.4888 236.98 62.8433 236.408 63.0948C235.848 63.3464 235.219 63.4722 234.521 63.4722C233.721 63.4722 233.017 63.3293 232.411 63.0434C231.817 62.7461 231.348 62.3287 231.005 61.7912C230.673 61.2538 230.507 60.6248 230.507 59.9044C230.507 59.1726 230.679 58.5379 231.022 58.0004C231.377 57.4516 231.851 57.0285 232.446 56.7311C233.052 56.4338 233.738 56.2852 234.504 56.2852ZM234.538 57.0399C233.909 57.0399 233.361 57.16 232.892 57.4001C232.423 57.6288 232.051 57.9547 231.777 58.3778C231.514 58.8009 231.382 59.3041 231.382 59.8873C231.382 60.7449 231.674 61.431 232.257 61.9456C232.84 62.4602 233.635 62.7175 234.641 62.7175C235.293 62.7175 235.871 62.5917 236.374 62.3401C236.877 62.0885 237.266 61.7455 237.54 61.3109C237.826 60.8764 237.969 60.3904 237.969 59.853C237.969 59.3841 237.837 58.9381 237.574 58.515C237.311 58.0805 236.928 57.726 236.425 57.4516C235.922 57.1771 235.293 57.0399 234.538 57.0399ZM244.925 68.4637C244.056 68.4637 243.239 68.315 242.473 68.0177C241.718 67.7204 241.129 67.3316 240.706 66.8513L241.152 66.1824C241.518 66.6055 242.032 66.96 242.696 67.2458C243.359 67.5203 244.096 67.6575 244.908 67.6575C246.018 67.6575 246.852 67.4059 247.413 66.9028C247.973 66.3996 248.253 65.7478 248.253 64.9474C248.253 64.3756 248.122 63.8839 247.859 63.4722C247.596 63.0605 247.15 62.7461 246.521 62.5288C245.892 62.3001 245.034 62.1857 243.948 62.1857H241.512L242.147 56.3709H248.51V57.16H242.507L242.936 56.7483L242.37 61.8427L241.958 61.3967H244.136C245.36 61.3967 246.332 61.5454 247.052 61.8427C247.784 62.1286 248.31 62.5345 248.631 63.0605C248.962 63.5866 249.128 64.2041 249.128 64.9131C249.128 65.5763 248.974 66.1766 248.665 66.7141C248.356 67.2516 247.887 67.6804 247.258 68.0006C246.641 68.3093 245.863 68.4637 244.925 68.4637ZM256.083 68.3779V59.4241H262.206V60.196H256.7L256.94 59.9559V68.3779H256.083ZM263.165 68.4465C262.971 68.4465 262.799 68.3779 262.65 68.2407C262.513 68.092 262.445 67.9148 262.445 67.709C262.445 67.5031 262.513 67.3316 262.65 67.1944C262.799 67.0572 262.971 66.9885 263.165 66.9885C263.359 66.9885 263.525 67.0572 263.662 67.1944C263.811 67.3316 263.885 67.5031 263.885 67.709C263.885 67.9148 263.811 68.092 263.662 68.2407C263.525 68.3779 263.359 68.4465 263.165 68.4465Z" fill="#2C2C2C"/>
</svg>
